<?xml version="1.0" standalone="no"?>
<!DOCTYPE svg PUBLIC "-//W3C//DTD SVG 20010904//EN"
 "http://www.w3.org/TR/2001/REC-SVG-20010904/DTD/svg10.dtd">
<svg version="1.0" xmlns="http://www.w3.org/2000/svg"
 width="512" height="512" viewBox="0 0 1024.000000 1024.000000"
 preserveAspectRatio="xMidYMid meet">
<metadata>
Created by potrace 1.16, written by Peter Selinger 2001-2019
</metadata>
<g transform="translate(0.000000,1024.000000) scale(0.100000,-0.100000)"
fill="#fff" stroke="none">
<path d="M4530 9474 c-572 -23 -1131 -140 -1630 -341 -172 -70 -424 -192 -565
-276 l-110 -65 -30 28 c-85 80 -324 81 -469 2 -70 -38 -160 -124 -196 -188
-46 -79 -65 -187 -51 -278 8 -51 9 -80 1 -100 -16 -43 -12 -91 11 -120 11 -15
18 -33 16 -41 -3 -7 -43 -60 -89 -117 -538 -662 -753 -1414 -602 -2097 35
-157 73 -263 150 -416 170 -342 445 -612 786 -775 256 -121 514 -169 815 -149
123 8 332 42 362 59 10 5 -9 20 -65 49 -311 163 -623 505 -754 825 -77 187
-105 350 -97 561 6 156 19 236 63 370 70 219 273 539 425 673 l34 30 0 -67 0
-66 80 -32 c44 -17 123 -44 176 -59 95 -26 98 -27 134 -10 35 17 37 17 75 -6
22 -13 400 -380 840 -816 l800 -794 -17 -23 c-10 -13 -119 -153 -242 -310
-170 -218 -232 -291 -257 -301 -44 -18 -85 -76 -126 -175 -24 -61 -62 -118
-166 -251 -187 -242 -201 -258 -222 -258 -25 0 -59 -46 -109 -145 -49 -98 -79
-142 -301 -434 -96 -127 -180 -231 -187 -231 -30 0 -83 -63 -108 -129 -22 -56
-118 -190 -521 -727 -469 -627 -495 -659 -529 -665 -81 -14 -135 -91 -135
-194 0 -33 -5 -90 -10 -127 -6 -43 -6 -86 0 -120 9 -48 16 -60 83 -123 71 -68
199 -164 314 -235 50 -31 64 -35 127 -35 74 0 84 4 259 96 91 48 137 125 112
186 -12 28 -10 33 32 89 25 32 87 118 138 189 51 72 110 143 129 158 22 17 51
56 71 97 30 59 686 988 917 1296 41 56 86 127 98 158 22 52 27 58 67 68 32 8
53 22 83 58 49 58 82 131 78 168 -3 21 18 59 87 162 137 203 146 213 189 235
31 16 48 36 78 90 21 39 38 84 38 101 0 19 30 82 86 180 47 82 97 170 110 196
20 39 29 47 56 50 30 3 36 10 75 89 24 47 47 106 51 131 6 32 26 68 68 122
l59 77 473 -474 472 -473 -41 -94 c-22 -52 -67 -186 -100 -299 -33 -113 -62
-207 -65 -210 -13 -13 11 273 32 375 8 39 25 98 38 132 l25 63 -41 -23 c-67
-38 -198 -152 -276 -240 -103 -116 -218 -292 -302 -460 -79 -157 -82 -150 -24
55 44 154 97 280 172 408 34 57 59 106 56 108 -2 3 -29 -20 -60 -50 -200 -196
-322 -498 -325 -808 l-1 -106 -14 55 c-17 63 -23 312 -12 460 l7 95 -19 -54
c-35 -97 -53 -219 -54 -368 -1 -79 -2 -143 -2 -143 -1 0 -24 46 -52 103 -83
170 -176 251 -303 263 -54 5 -54 5 -29 -13 162 -119 231 -215 301 -420 16 -48
29 -90 29 -94 0 -3 -53 -28 -117 -54 -542 -220 -1192 -666 -1696 -1163 -141
-139 -166 -183 -174 -300 -7 -95 7 -158 49 -232 l31 -54 26 34 c327 431 699
775 1186 1095 162 107 307 191 454 265 147 73 283 131 297 126 25 -10 46 -101
51 -221 4 -105 1 -132 -21 -218 -27 -104 -89 -246 -149 -340 -21 -32 -37 -60
-37 -63 0 -14 93 62 152 124 165 175 230 418 172 647 -9 37 8 31 60 -21 57
-57 91 -113 123 -207 22 -60 26 -95 30 -217 3 -82 0 -164 -6 -190 -5 -24 -8
-46 -6 -48 8 -8 60 87 84 153 19 55 25 90 25 165 1 123 -28 215 -101 323 -29
42 -47 77 -40 77 28 0 172 -71 250 -123 98 -65 210 -180 252 -257 16 -30 37
-91 46 -135 l16 -80 7 70 c15 145 -38 287 -152 403 -48 48 -58 63 -41 58 13
-3 89 -18 169 -32 120 -21 177 -25 335 -26 199 -1 427 18 403 33 -7 5 -79 9
-160 9 -151 0 -376 15 -438 30 -26 6 -7 8 71 9 112 1 266 14 384 32 80 12 284
58 303 68 7 4 -18 13 -55 20 -141 28 -430 107 -471 130 -9 5 61 11 174 16 189
7 189 7 259 -20 67 -26 76 -27 215 -22 162 5 256 26 412 92 85 36 270 150 275
170 1 6 -18 25 -42 43 -42 30 -83 78 -74 86 2 2 79 13 171 24 100 13 179 27
200 38 112 57 412 331 566 515 12 15 6 21 -47 54 -34 20 -61 39 -61 43 0 4 48
22 108 41 103 33 109 37 172 100 128 131 321 428 447 686 64 133 159 391 178
482 l6 32 -85 -6 c-47 -3 -86 -3 -86 0 0 3 35 45 77 94 110 126 191 238 203
281 12 43 43 225 62 362 20 146 17 566 -5 715 -25 174 -96 447 -122 474 -5 5
-237 -119 -360 -191 -152 -91 -176 -113 -234 -228 -29 -55 -53 -100 -54 -100
-1 0 1 35 4 77 3 43 4 80 3 82 -5 6 -94 -49 -184 -112 -255 -181 -695 -561
-788 -680 -63 -81 -75 -101 -143 -230 l-56 -108 -13 61 c-7 33 -17 63 -22 66
-12 8 -125 -84 -197 -161 -173 -185 -295 -400 -355 -624 -14 -51 -27 -95 -29
-98 -5 -5 -12 30 -28 155 -6 50 -15 92 -20 92 -11 0 -84 -85 -126 -149 -46
-69 -97 -193 -118 -287 -13 -58 -21 -74 -41 -83 -14 -6 -26 -11 -27 -11 -1 0
-238 239 -526 530 -522 529 -523 530 -507 555 13 20 22 23 49 18 83 -13 183
52 208 135 10 34 10 53 0 90 -11 46 -10 52 28 147 21 55 75 206 119 335 44
129 105 294 136 366 54 130 139 364 133 370 -1 2 -23 -13 -47 -33 -98 -78
-888 -668 -969 -722 -109 -74 -136 -104 -159 -170 l-18 -54 -595 583 c-327
321 -671 661 -764 756 l-170 174 -2 102 c-2 72 -8 120 -22 160 -11 31 -23 82
-26 113 -7 55 -11 62 -47 88 -9 7 -20 28 -23 48 -6 35 -5 37 95 124 203 179
479 365 707 479 307 153 706 283 1073 350 307 56 564 78 915 78 403 0 702 -30
1082 -107 119 -25 218 -43 221 -41 9 9 -200 129 -403 231 -593 299 -1241 482
-1890 534 -141 12 -473 20 -595 15z m710 -129 c414 -51 813 -144 1163 -271
173 -63 370 -144 364 -151 -3 -2 -51 5 -108 16 -190 36 -356 46 -749 46 -469
0 -598 -14 -994 -107 l-178 -42 -113 119 -113 120 77 12 c440 71 1012 83 1354
29 43 -7 74 -9 70 -6 -9 8 -229 43 -378 61 -147 17 -583 23 -755 10 -746 -56
-1489 -308 -2078 -703 -65 -44 -74 -47 -92 -35 -26 18 -202 188 -198 192 2 1
142 80 311 175 169 95 306 174 304 177 -7 6 -243 -100 -423 -190 -93 -47 -186
-92 -206 -100 l-36 -15 -37 38 -37 38 43 28 c200 127 619 302 949 397 272 79
602 142 860 166 63 6 131 13 150 15 96 11 722 -3 850 -19z m-681 -349 c42 -35
97 -86 123 -113 l48 -49 -103 -33 c-234 -75 -548 -215 -752 -336 -204 -121
-440 -296 -593 -440 l-84 -79 -194 195 c-107 107 -194 200 -194 207 0 19 39
14 73 -10 27 -19 118 -94 357 -294 l35 -29 -31 40 c-18 22 -104 111 -192 197
l-161 158 32 23 c55 41 283 177 297 177 15 0 136 -88 230 -168 36 -31 76 -65
90 -76 28 -23 -54 67 -179 195 l-83 87 43 25 c24 14 96 49 159 77 l114 52 31
-18 c58 -34 161 -109 235 -174 l75 -65 -42 51 c-23 28 -86 92 -138 143 -91 86
-95 92 -73 100 13 5 93 33 179 62 l155 53 50 -34 c27 -19 76 -59 109 -89 66
-62 66 -61 -25 57 -34 45 -61 84 -59 86 8 8 335 85 363 85 21 1 48 -16 105
-63z m-2589 -213 c-1 -5 -28 -28 -62 -53 -33 -25 -121 -104 -195 -176 -129
-126 -134 -129 -128 -95 17 100 104 220 200 277 67 39 186 69 185 47z m158
-26 c22 -12 17 -17 -110 -112 -140 -105 -300 -257 -383 -364 -61 -78 -72 -61
-24 37 25 52 57 92 143 178 103 102 317 274 341 274 5 -1 20 -6 33 -13z m629
-473 c434 -428 478 -479 455 -519 -5 -11 -51 29 -172 148 -308 303 -605 592
-694 676 l-89 84 24 18 c13 10 29 19 35 19 6 0 204 -192 441 -426z m-261 54
c176 -168 391 -379 478 -467 l160 -160 -30 -12 c-141 -61 -285 -172 -372 -288
l-61 -81 -360 357 -359 358 15 48 c12 39 18 47 39 47 29 0 31 11 4 35 -12 11
-20 31 -20 52 0 38 -14 42 -39 12 -13 -17 -21 -19 -43 -10 -19 7 -31 6 -44 -4
-18 -13 -18 -14 4 -38 l24 -25 -22 -12 c-21 -11 -28 -7 -87 52 l-64 64 69 75
c115 124 349 314 378 307 7 -2 155 -141 330 -310z m-308 -621 c459 -458 453
-450 422 -497 -7 -12 -42 18 -177 150 -92 91 -308 303 -479 471 l-312 306 20
32 20 31 32 -26 c17 -14 230 -225 474 -467z m-504 209 c-223 -272 -423 -620
-513 -891 -40 -123 -82 -311 -80 -368 0 -18 9 11 20 63 53 252 166 504 354
790 98 149 272 385 283 385 5 0 37 -26 72 -57 60 -53 63 -58 49 -75 -210 -244
-349 -462 -458 -714 -237 -553 -238 -1078 -2 -1488 151 -263 375 -499 631
-663 86 -55 164 -99 145 -81 -5 6 -65 52 -133 103 -67 51 -158 127 -200 169
-251 247 -431 563 -498 871 -24 112 -24 363 0 505 73 432 293 884 558 1142
l64 63 66 -68 67 -67 -114 -169 c-109 -162 -172 -266 -161 -266 3 0 26 28 52
63 133 173 258 327 265 325 14 -5 259 -239 259 -248 0 -4 -34 -48 -76 -96
-255 -296 -388 -544 -456 -845 -20 -91 -23 -130 -23 -309 1 -173 4 -221 23
-306 45 -208 125 -397 243 -574 80 -120 254 -295 373 -375 l88 -60 -71 -3
c-92 -4 -282 21 -402 52 -562 147 -996 586 -1145 1155 -67 257 -72 586 -14
887 82 424 292 826 634 1216 l41 46 42 -40 42 -41 -25 -31z m1617 -277 c14
-27 7 -33 -62 -53 -31 -9 -99 -37 -150 -63 -77 -38 -110 -62 -185 -137 -96
-96 -149 -178 -186 -286 -21 -60 -35 -71 -66 -51 -10 6 -10 17 4 57 83 250
295 457 544 531 93 27 87 27 101 2z m18 -160 c18 -53 14 -67 -27 -88 -109 -56
-293 -222 -392 -355 l-44 -58 -18 22 c-65 80 -32 186 101 320 107 108 249 189
333 190 32 0 37 -4 47 -31z m349 -631 c594 -587 2712 -2702 2712 -2709 0 -4
-32 -32 -70 -64 l-71 -56 -597 593 c-677 672 -1098 1080 -1062 1028 31 -44
692 -719 1219 -1245 221 -220 401 -405 401 -412 0 -7 -9 -17 -20 -23 -19 -10
-60 27 -411 372 -215 211 -901 897 -1525 1525 l-1135 1142 17 26 c9 14 19 25
23 25 14 0 198 -174 569 -538 216 -211 394 -383 396 -381 2 2 -129 144 -291
314 -427 449 -618 656 -618 670 0 13 83 85 98 85 5 0 169 -158 365 -352z
m2270 -377 c-24 -33 -108 -149 -188 -258 -80 -109 -181 -248 -224 -310 -72
-103 -80 -111 -100 -101 -31 16 -166 112 -165 118 0 3 37 34 82 70 92 73 309
259 501 427 71 62 130 113 133 113 2 0 -15 -27 -39 -59z m-50 -213 c-109 -246
-260 -574 -268 -582 -9 -9 -105 49 -129 78 -7 8 39 76 161 236 94 124 193 255
220 293 27 37 51 67 53 67 2 0 -15 -42 -37 -92z m3187 -60 c-209 -634 -618
-1287 -1205 -1923 -327 -355 -596 -592 -1016 -897 -539 -391 -984 -643 -1664
-943 -500 -222 -820 -398 -1157 -641 -322 -231 -662 -545 -830 -766 -15 -21
-31 -37 -35 -38 -12 0 -9 129 3 175 22 86 454 471 824 734 375 267 707 445
1340 721 289 126 457 210 685 343 538 313 966 602 1235 832 272 233 702 665
901 905 386 467 700 987 899 1492 21 54 40 96 43 94 2 -3 -8 -42 -23 -88z
m-516 -135 c16 -55 13 -168 -5 -264 -15 -81 -71 -290 -100 -371 -25 -73 -15
-64 71 62 46 69 101 143 120 165 l36 40 -6 -40 c-28 -169 -173 -417 -422 -722
-54 -66 -110 -135 -125 -154 l-28 -34 16 45 c14 40 84 307 194 740 22 85 50
207 64 271 13 64 34 136 46 160 21 42 106 139 122 139 4 0 12 -17 17 -37z
m-3298 -256 c161 -101 374 -266 384 -297 7 -23 -18 -75 -40 -84 -9 -3 -27 -6
-40 -6 -45 0 -438 279 -466 331 -19 36 19 109 56 109 12 0 60 -24 106 -53z
m2758 -471 c15 -105 14 -209 -4 -341 -8 -60 -15 -112 -14 -115 2 -16 51 159
75 271 28 129 29 131 37 88 16 -92 -33 -429 -77 -524 -14 -30 -46 -83 -73
-117 -45 -60 -443 -471 -449 -465 -3 3 88 401 112 485 33 120 106 332 116 338
12 7 6 -96 -7 -131 -4 -11 7 3 24 32 48 81 96 207 157 410 31 103 59 192 62
198 10 16 30 -47 41 -129z m-585 -189 c-24 -227 -121 -719 -191 -962 -3 -11
-2 -17 1 -14 19 18 141 403 190 599 57 227 113 410 126 410 4 0 10 -24 14 -52
32 -286 -1 -563 -103 -868 -89 -266 -84 -257 -278 -412 -92 -74 -224 -177
-293 -228 -116 -86 -324 -230 -333 -230 -2 0 9 36 24 81 53 149 81 360 95 709
3 96 13 199 20 228 14 53 67 166 82 176 5 3 14 -43 21 -102 7 -59 23 -156 35
-217 l23 -110 25 55 c25 55 55 144 122 360 42 136 106 272 184 390 57 87 217
255 232 245 5 -3 7 -29 4 -58z m-2532 -180 l101 -108 -59 -85 c-33 -48 -73
-102 -89 -121 l-30 -35 -100 104 c-55 56 -115 122 -133 145 l-32 41 42 54 c23
29 64 79 91 111 l50 58 29 -28 c17 -15 75 -76 130 -136z m-270 -214 c52 -65
97 -124 102 -130 5 -10 -8 -13 -57 -13 l-63 0 -72 91 -71 92 30 38 c17 22 32
39 34 39 1 0 45 -53 97 -117z m-145 -86 l51 -62 -105 -3 c-58 -1 -108 -1 -111
2 -6 7 91 125 103 125 6 0 33 -28 62 -62z m316 -123 c42 -7 47 -25 22 -74 -14
-27 -18 -28 -107 -34 -224 -14 -599 -28 -604 -23 -7 6 35 89 49 99 18 11 143
21 367 28 118 4 220 7 225 8 6 1 27 -1 48 -4z m3525 -153 c8 -55 -149 -161
-334 -225 -117 -41 -32 -29 189 27 l207 53 0 -32 c0 -97 -46 -216 -119 -308
-81 -102 -208 -185 -417 -273 -154 -66 -200 -80 -347 -109 l-122 -24 115 3
c63 2 142 1 175 -2 l60 -6 -60 -23 c-157 -61 -385 -86 -575 -64 l-54 7 114 85
c63 47 152 119 197 161 l83 77 228 -5 c125 -3 225 -3 222 0 -3 3 -82 10 -177
17 -94 6 -183 15 -198 18 -24 7 -16 16 136 161 144 139 372 381 429 459 l22
29 111 -1 c110 -1 112 -1 115 -25z m-3648 -36 c0 -13 -85 -125 -95 -125 -16 0
-127 115 -119 123 9 8 214 10 214 2z m-221 -87 c47 -46 86 -90 85 -98 0 -8
-26 -55 -58 -103 l-57 -88 -52 57 c-66 72 -237 285 -237 295 0 5 42 10 93 12
50 1 103 4 116 5 19 1 46 -18 110 -80z m-308 -50 c35 -46 94 -118 131 -160 38
-42 68 -79 68 -82 0 -3 -16 -6 -36 -6 -31 0 -51 14 -165 116 -71 64 -129 121
-129 126 0 9 58 88 65 88 1 0 31 -37 66 -82z m7 -259 c-69 -10 -348 -21 -348
-14 0 7 73 105 133 177 l39 48 109 -103 110 -102 -43 -6z m2439 -49 c-5 -224
-23 -312 -99 -491 -40 -96 -46 -105 -98 -140 -193 -130 -965 -554 -1091 -598
l-27 -9 15 51 c23 79 101 273 144 358 81 162 255 394 358 478 34 27 43 31 37
16 -4 -11 -21 -83 -37 -160 -32 -154 -45 -312 -34 -400 l7 -57 45 43 c64 63
124 193 178 384 54 190 85 271 130 339 43 64 80 100 290 280 158 136 170 144
178 123 5 -12 7 -110 4 -217z m-2127 -18 c0 -4 -14 -27 -30 -49 -32 -43 -34
-44 -150 -58 -73 -9 -528 -35 -612 -35 l-78 0 21 52 c11 29 25 55 30 59 6 3
144 11 307 18 163 7 302 14 307 16 22 7 205 4 205 -3z m-192 -198 c-9 -9 -24
-14 -32 -11 -27 11 -17 27 16 27 30 0 31 -1 16 -16z m-81 -28 l37 -33 -74
-101 -73 -101 -27 19 c-18 13 -30 33 -35 57 -3 21 -13 49 -22 62 -13 20 -21
23 -60 18 -40 -4 -49 -1 -93 34 -26 21 -51 42 -54 48 -9 13 105 25 282 29 81
2 83 1 119 -32z m-377 -113 c193 -155 290 -243 290 -262 0 -9 -9 -27 -19 -41
-16 -21 -23 -22 -43 -13 -62 29 -215 150 -332 263 -119 117 -128 127 -117 148
8 16 21 22 44 22 27 0 59 -21 177 -117z m-191 -67 l83 -84 5 -63 c2 -35 1 -96
-4 -135 l-8 -72 -145 131 c-80 73 -145 135 -145 139 0 11 115 168 123 168 4 0
45 -38 91 -84z m-46 -304 l48 -49 -92 -6 c-151 -11 -341 -9 -337 4 2 6 44 62
93 124 l89 114 75 -69 c42 -38 98 -91 124 -118z m288 85 l74 -68 -25 -19 c-41
-32 -86 -50 -124 -50 l-36 0 0 116 c0 134 -10 132 111 21z m3087 -31 c120 -46
224 -100 267 -137 l36 -32 -21 -22 c-32 -34 -129 -74 -221 -91 -59 -12 -131
-15 -274 -12 -107 2 -191 0 -187 -3 4 -3 75 -12 157 -18 343 -28 448 -42 460
-61 9 -14 -68 -49 -151 -70 -106 -27 -305 -40 -657 -41 -170 0 -307 -2 -304
-5 2 -2 80 -18 173 -34 93 -16 225 -45 294 -65 69 -20 165 -49 215 -63 l90
-26 -44 -13 c-136 -39 -469 -42 -871 -8 l-65 5 140 -51 c77 -28 232 -83 345
-122 l205 -72 -58 -7 c-213 -27 -501 -26 -694 2 -70 10 -315 54 -451 81 -67
13 -66 14 123 100 217 98 651 332 950 512 150 90 411 263 421 279 9 14 32 9
122 -26z m-3088 -184 c0 -22 -53 -81 -77 -86 -57 -12 -375 -26 -586 -26 l-219
0 19 28 c52 81 44 77 156 83 160 9 707 10 707 1z m-170 -185 c0 -17 -97 -157
-109 -157 -8 0 -52 33 -161 119 l-45 36 120 5 c66 4 137 7 158 8 25 1 37 -2
37 -11z m-307 -70 c45 -35 103 -78 130 -96 l47 -32 -47 -62 c-27 -33 -53 -68
-59 -76 -10 -13 -40 9 -189 134 -97 83 -186 156 -196 164 -10 7 -19 17 -19 22
0 5 57 9 126 9 l125 0 82 -63z m-355 6 c20 -16 105 -82 187 -148 83 -66 163
-130 179 -141 l30 -22 -18 -28 c-11 -16 -48 -71 -84 -121 l-66 -93 -26 17
c-38 24 -112 86 -244 203 -65 58 -130 114 -144 126 l-26 21 39 54 c62 87 119
158 128 158 5 1 25 -11 45 -26z m-223 -232 c3 -6 85 -77 183 -159 97 -82 189
-162 205 -177 26 -27 27 -29 11 -54 -35 -54 -169 -241 -174 -241 -8 0 -219
187 -329 292 l-103 99 93 124 c52 69 97 125 101 125 4 0 9 -4 13 -9z m-142
-364 c51 -45 149 -131 219 -191 l127 -109 -56 -76 c-73 -100 -70 -98 -130
-105 l-51 -6 -94 77 c-186 154 -288 248 -284 260 6 13 169 233 174 233 2 0 45
-37 95 -83z m-129 -352 l159 -140 -103 -7 -104 -7 -46 37 c-90 72 -170 145
-170 154 0 21 81 118 93 111 7 -4 84 -70 171 -148z m-200 -74 l78 -78 -63 -7
-62 -7 -49 51 -49 52 26 34 c14 19 29 34 33 34 4 0 43 -35 86 -79z m-130 -56
c9 -14 16 -27 16 -30 0 -3 -25 -5 -56 -5 l-55 0 26 34 c29 38 45 38 69 1z
m656 -79 c0 -18 -45 -73 -71 -86 -27 -15 -185 -28 -492 -41 -194 -8 -282 -8
-289 -1 -11 11 27 87 55 111 14 11 182 18 725 29 56 2 72 -1 72 -12z m-890
-224 c177 -149 318 -260 415 -327 121 -84 121 -85 86 -119 l-28 -27 -159 119
c-122 91 -403 316 -478 383 -7 7 40 58 54 59 3 0 52 -40 110 -88z m670 -23 c0
-4 -18 -31 -41 -59 -41 -52 -41 -52 -62 -33 -12 11 -55 48 -96 84 l-74 64 94
5 c91 5 95 4 137 -24 23 -16 42 -33 42 -37z m44 56 c-4 -8 -14 -15 -24 -15
-10 0 -23 7 -30 15 -11 13 -7 15 23 15 28 0 35 -3 31 -15z m-332 -51 c35 -31
89 -77 120 -102 57 -44 57 -45 42 -71 -8 -14 -28 -41 -43 -60 l-28 -34 -134
101 c-74 55 -161 125 -193 154 l-60 53 115 6 c62 3 115 6 116 7 1 1 31 -23 65
-54z m-395 -186 c175 -133 353 -278 353 -288 0 -14 -32 -29 -78 -36 -49 -8
-74 6 -212 117 -125 101 -190 169 -192 200 -3 49 2 89 12 89 5 0 58 -37 117
-82z"/>
<path d="M2186 8438 c-14 -21 -26 -28 -51 -28 -27 0 -34 -4 -37 -22 -2 -13 4
-32 13 -43 9 -11 21 -33 26 -50 12 -38 24 -37 42 4 14 29 18 31 65 31 l51 1
-34 28 c-21 17 -39 44 -46 67 l-11 39 -18 -27z"/>
<path d="M2462 8063 c-28 -23 -36 -25 -59 -14 -35 16 -41 7 -20 -32 13 -25 15
-40 7 -72 -12 -51 -5 -56 24 -20 l23 29 42 -18 c23 -11 44 -16 47 -13 3 3 -6
21 -20 40 -25 33 -26 36 -11 70 27 64 19 71 -33 30z"/>
<path d="M2790 7846 c-8 -27 -21 -40 -46 -51 -19 -8 -34 -16 -34 -19 0 -3 13
-12 29 -20 16 -9 34 -30 41 -48 l12 -33 12 35 c8 22 21 36 36 40 33 8 35 24 5
38 -18 8 -25 19 -25 39 0 50 -16 60 -30 19z"/>
</g>
</svg>
